<?xml version="1.0" encoding="UTF-8" standalone="no"?>
<svg
   xmlns:dc="http://purl.org/dc/elements/1.1/"
   xmlns:cc="http://creativecommons.org/ns#"
   xmlns:rdf="http://www.w3.org/1999/02/22-rdf-syntax-ns#"
   xmlns:svg="http://www.w3.org/2000/svg"
   xmlns="http://www.w3.org/2000/svg"
   xmlns:sodipodi="http://sodipodi.sourceforge.net/DTD/sodipodi-0.dtd"
   xmlns:inkscape="http://www.inkscape.org/namespaces/inkscape"
   width="0.60000002cm"
   height="0.40000001cm"
   viewBox="0 0 6 4"
   version="1.1"
   id="svg8"
   inkscape:version="1.0.2 (e86c870879, 2021-01-15)"
   sodipodi:docname="face_right.svg">
  <defs
     id="defs2" />
  <sodipodi:namedview
     id="base"
     pagecolor="#ffffff"
     bordercolor="#666666"
     borderopacity="1.0"
     inkscape:pageopacity="0.0"
     inkscape:pageshadow="2"
     inkscape:zoom="44.8"
     inkscape:cx="11.373253"
     inkscape:cy="7.6321806"
     inkscape:document-units="cm"
     inkscape:current-layer="layer1"
     inkscape:document-rotation="0"
     showgrid="false"
     showguides="false"
     units="cm"
     inkscape:window-width="1536"
     inkscape:window-height="784"
     inkscape:window-x="0"
     inkscape:window-y="0"
     inkscape:window-maximized="1" />
  <metadata
     id="metadata5">
    <rdf:RDF>
      <cc:Work
         rdf:about="">
        <dc:format>image/svg+xml</dc:format>
        <dc:type
           rdf:resource="http://purl.org/dc/dcmitype/StillImage" />
        <dc:title></dc:title>
      </cc:Work>
    </rdf:RDF>
  </metadata>
  <g
     inkscape:label="Layer 1"
     inkscape:groupmode="layer"
     id="layer1">
    <path
       id="path10"
       style="opacity:1;fill:none;fill-rule:evenodd;stroke:#000000;stroke-width:0.03;stroke-miterlimit:4;stroke-dasharray:none;stroke-opacity:1"
       d="m 4.2164443,2.0935569 c 0,0.6036612 -0.5813356,1.1121168 -1.2348004,1.1121168 -0.6534648,10e-8 -1.2567896,-0.5002991 -1.2567896,-1.1039604 0,-0.6036612 0.6079387,-1.0658491 1.2614035,-1.065849 0.6534648,0 1.2301865,0.4540314 1.2301865,1.0576926 z"
       sodipodi:nodetypes="sssss" />
    <path
       id="path836"
       style="opacity:1;fill:none;stroke:#000000;stroke-width:0.0358846;stroke-miterlimit:4;stroke-dasharray:none;stroke-opacity:1"
       d="m 3.8400388,2.6281376 c 0,0.349838 -0.312405,0.5862371 -0.7563816,0.5862371 -0.4439766,0 -0.769542,-0.2294172 -0.7695419,-0.5792552 0,-0.349838 0.3298333,-0.5086445 0.7738098,-0.5086445 0.4439765,0 0.7521136,0.1518246 0.7521137,0.5016626 z"
       sodipodi:nodetypes="sssss" />
    <path
       style="fill:none;stroke:#000000;stroke-width:0.03;stroke-linecap:butt;stroke-linejoin:miter;stroke-miterlimit:4;stroke-dasharray:none;stroke-opacity:1"
       d="M 2.4324672,2.3168068 C 2.31064,2.2962068 2.211482,2.2415958 2.1238202,2.1519166 c 0,0 0.086864,-0.2936108 0.203992,-0.3737923 0.1190421,-0.081491 0.2957359,-0.1106499 0.4291744,-0.055823 0.071659,0.029443 0.1209014,0.1090496 0.1428189,0.1833563 0.022266,0.075489 -0.020774,0.2351985 -0.020774,0.2351985 0,0 -0.1759633,0.021482 -0.2569924,0.05473 -0.069391,0.028473 -0.1895715,0.1212207 -0.1895719,0.1212207 z"
       id="path841"
       sodipodi:nodetypes="ccssscsc" />
    <path
       style="fill:none;stroke:#000000;stroke-width:0.03;stroke-linecap:butt;stroke-linejoin:miter;stroke-miterlimit:4;stroke-dasharray:none;stroke-opacity:1"
       d="m 3.6999113,2.3014118 c 0.1311851,-0.033969 0.2268245,-0.084267 0.308647,-0.1648902 0,0 -0.086864,-0.2936108 -0.203992,-0.3737923 C 3.6855242,1.6812383 3.5088304,1.6520794 3.3753919,1.7069063 3.3037329,1.7363493 3.2544905,1.8159559 3.232573,1.8902626 c -0.022266,0.075489 0.020774,0.2351985 0.020774,0.2351985 0,0 0.1759633,0.021482 0.2569924,0.05473 0.069391,0.028473 0.1895715,0.1212207 0.1895719,0.1212207 z"
       id="path841-3"
       sodipodi:nodetypes="ccssscsc" />
    <ellipse
       style="opacity:1;fill:none;stroke:#000000;stroke-width:0.03;stroke-miterlimit:4;stroke-dasharray:none;stroke-opacity:1"
       id="path863"
       cx="2.6507874"
       cy="1.9912617"
       rx="0.1491238"
       ry="0.28119251" />
    <ellipse
       style="fill:none;stroke:#000000;stroke-width:0.03;stroke-miterlimit:4;stroke-dasharray:none;stroke-opacity:1"
       id="path863-6"
       cx="3.7407908"
       cy="1.9854705"
       rx="0.1491238"
       ry="0.28119251" />
    <path
       style="fill:none;stroke:#000000;stroke-width:0.03;stroke-linecap:butt;stroke-linejoin:miter;stroke-miterlimit:4;stroke-dasharray:none;stroke-opacity:1"
       d="M 2.9777748,2.4399524 C 3.092987,2.4172933 3.2051975,2.3958086 3.3270327,2.4384824 3.2896708,2.5391979 3.2456859,2.6247587 3.1463352,2.6916414 3.0582568,2.6211542 3.011091,2.5512543 2.9777748,2.4399524 Z"
       id="path887"
       sodipodi:nodetypes="cccc" />
    <path
       style="fill:none;stroke:#000000;stroke-width:0.03;stroke-linecap:butt;stroke-linejoin:miter;stroke-miterlimit:4;stroke-dasharray:none;stroke-opacity:1"
       d="M 2.6235871,2.2086501 2.9777748,2.4399524"
       id="path889"
       sodipodi:nodetypes="cc" />
    <path
       style="fill:none;stroke:#000000;stroke-width:0.03;stroke-linecap:butt;stroke-linejoin:miter;stroke-miterlimit:4;stroke-dasharray:none;stroke-opacity:1"
       d="M 3.4938701,2.1846221 3.3270327,2.4384824"
       id="path889-7"
       sodipodi:nodetypes="cc" />
    <path
       style="fill:none;stroke:#000000;stroke-width:0.03;stroke-linecap:butt;stroke-linejoin:miter;stroke-miterlimit:4;stroke-dasharray:none;stroke-opacity:1"
       d="m 3.1463352,2.6916413 0.00124,0.096492"
       id="path911" />
    <path
       style="fill:none;stroke:#000000;stroke-width:0.03;stroke-linecap:butt;stroke-linejoin:miter;stroke-miterlimit:4;stroke-dasharray:none;stroke-opacity:1"
       d="M 2.937792,2.9538556 3.1475753,2.7881333 3.3384026,2.9529258"
       id="path913" />
    <path
       style="fill:none;stroke:#000000;stroke-width:0.03;stroke-linecap:butt;stroke-linejoin:miter;stroke-miterlimit:4;stroke-dasharray:none;stroke-opacity:1"
       d="m 2.2547959,1.6030549 c 0,0 0.2235015,-0.013532 0.3318358,0.009 0.1148194,0.02388 0.3263382,0.1314815 0.3263382,0.1314815"
       id="path915"
       sodipodi:nodetypes="csc" />
    <path
       style="fill:none;stroke:#000000;stroke-width:0.03;stroke-linecap:butt;stroke-linejoin:miter;stroke-miterlimit:4;stroke-dasharray:none;stroke-opacity:1"
       d="m 3.8503084,1.6054006 c 0,0 -0.2235015,-0.013532 -0.3318358,0.009 -0.1148194,0.02388 -0.3263382,0.1314815 -0.3263382,0.1314815"
       id="path915-5"
       sodipodi:nodetypes="csc" />
    <path
       style="fill:none;stroke:#000000;stroke-width:0.03;stroke-linecap:butt;stroke-linejoin:miter;stroke-miterlimit:4;stroke-dasharray:none;stroke-opacity:1"
       d="m 1.7907417,1.7562237 c 0,0 0.2091345,-0.1826231 0.3313464,-0.2455897 0.1365606,-0.070359 0.5703343,-0.1562255 0.5703343,-0.1562255 0,0 -0.2256329,-0.3004309 -0.3627776,-0.39218451 C 2.2161313,0.88628029 1.8340034,0.86146462 1.8340034,0.86146462 c 0,0 -0.08987,0.26030698 -0.098954,0.39609198 -0.011164,0.1668828 0.055692,0.4986671 0.055692,0.4986671 z"
       id="path937"
       sodipodi:nodetypes="cscscsc" />
    <path
       style="fill:none;stroke:#000000;stroke-width:0.03;stroke-linecap:butt;stroke-linejoin:miter;stroke-miterlimit:4;stroke-dasharray:none;stroke-opacity:1"
       d="m 1.8340034,0.86146464 c 0,0 0.3807543,0.0956728 0.4654719,0.18452376 0.092773,0.097299 0.2533875,0.3356508 0.2533875,0.3356508"
       id="path941"
       sodipodi:nodetypes="csc" />
    <path
       style="fill:none;stroke:#000000;stroke-width:0.03;stroke-linecap:butt;stroke-linejoin:miter;stroke-miterlimit:4;stroke-dasharray:none;stroke-opacity:1"
       d="m 4.118745,1.738712 c 0,0 -0.2091345,-0.1826231 -0.3313464,-0.2455897 C 3.650838,1.4227633 3.417126,1.3162724 3.417126,1.3162724 c 0,0 0.1413356,-0.2270457 0.2784803,-0.31879935 0.1135135,-0.0759437 0.379877,-0.15352008 0.379877,-0.15352008 0,0 0.08987,0.26030703 0.098954,0.39609193 0.011164,0.1668828 -0.055692,0.4986671 -0.055692,0.4986671 z"
       id="path937-3"
       sodipodi:nodetypes="cscscsc" />
    <path
       style="fill:none;stroke:#000000;stroke-width:0.03;stroke-linecap:butt;stroke-linejoin:miter;stroke-miterlimit:4;stroke-dasharray:none;stroke-opacity:1"
       d="m 4.0754833,0.84395299 c 0,0 -0.1185656,0.17812441 -0.2032832,0.26697541 -0.092773,0.097299 -0.1988966,0.3051524 -0.1988966,0.3051524"
       id="path941-5"
       sodipodi:nodetypes="csc" />
  </g>
</svg>
