<?xml version="1.0" encoding="UTF-8" standalone="no"?>
<svg
   xmlns:dc="http://purl.org/dc/elements/1.1/"
   xmlns:cc="http://creativecommons.org/ns#"
   xmlns:rdf="http://www.w3.org/1999/02/22-rdf-syntax-ns#"
   xmlns:svg="http://www.w3.org/2000/svg"
   xmlns="http://www.w3.org/2000/svg"
   xmlns:sodipodi="http://sodipodi.sourceforge.net/DTD/sodipodi-0.dtd"
   xmlns:inkscape="http://www.inkscape.org/namespaces/inkscape"
   width="0.60000002cm"
   height="0.40000001cm"
   viewBox="0 0 6 4"
   version="1.1"
   id="svg8"
   inkscape:version="1.0.2 (e86c870879, 2021-01-15)"
   sodipodi:docname="face_forward.svg">
  <defs
     id="defs2" />
  <sodipodi:namedview
     id="base"
     pagecolor="#ffffff"
     bordercolor="#666666"
     borderopacity="1.0"
     inkscape:pageopacity="0.0"
     inkscape:pageshadow="2"
     inkscape:zoom="44.8"
     inkscape:cx="11.387203"
     inkscape:cy="7.6321806"
     inkscape:document-units="cm"
     inkscape:current-layer="layer1"
     inkscape:document-rotation="0"
     showgrid="false"
     showguides="false"
     units="cm"
     inkscape:window-width="1536"
     inkscape:window-height="784"
     inkscape:window-x="0"
     inkscape:window-y="0"
     inkscape:window-maximized="1" />
  <metadata
     id="metadata5">
    <rdf:RDF>
      <cc:Work
         rdf:about="">
        <dc:format>image/svg+xml</dc:format>
        <dc:type
           rdf:resource="http://purl.org/dc/dcmitype/StillImage" />
        <dc:title></dc:title>
      </cc:Work>
    </rdf:RDF>
  </metadata>
  <g
     inkscape:label="Layer 1"
     inkscape:groupmode="layer"
     id="layer1">
    <path
       id="path10"
       style="opacity:1;fill:none;fill-rule:evenodd;stroke:#000000;stroke-width:0.03;stroke-miterlimit:4;stroke-dasharray:none;stroke-opacity:1"
       d="m 4.2164443,2.0935569 c 0,0.6036612 -0.5813356,1.1121168 -1.2348004,1.1121168 -0.6534648,10e-8 -1.2567896,-0.5002991 -1.2567896,-1.1039604 0,-0.6036612 0.6079387,-1.0658491 1.2614035,-1.065849 0.6534648,0 1.2301865,0.4540314 1.2301865,1.0576926 z"
       sodipodi:nodetypes="sssss" />
    <path
       id="path836"
       style="opacity:1;fill:none;stroke:#000000;stroke-width:0.0358846;stroke-miterlimit:4;stroke-dasharray:none;stroke-opacity:1"
       d="m 3.7430071,2.6347356 c 0,0.349838 -0.312405,0.5862371 -0.7563816,0.5862371 -0.4439766,0 -0.769542,-0.2294172 -0.7695419,-0.5792552 0,-0.349838 0.3298333,-0.5086445 0.7738098,-0.5086445 0.4439765,0 0.7521136,0.1518246 0.7521137,0.5016626 z"
       sodipodi:nodetypes="sssss" />
    <path
       style="fill:none;stroke:#000000;stroke-width:0.03;stroke-linecap:butt;stroke-linejoin:miter;stroke-miterlimit:4;stroke-dasharray:none;stroke-opacity:1"
       d="m 2.3354355,2.3234048 c -0.1218272,-0.0206 -0.2209852,-0.075211 -0.308647,-0.1648902 0,0 0.086864,-0.2936108 0.203992,-0.3737923 0.1190421,-0.081491 0.2957359,-0.1106499 0.4291744,-0.055823 0.071659,0.029443 0.1209014,0.1090496 0.1428189,0.1833563 0.022266,0.075489 -0.020774,0.2351985 -0.020774,0.2351985 0,0 -0.1759633,0.021482 -0.2569924,0.05473 -0.069391,0.028473 -0.1895715,0.1212207 -0.1895719,0.1212207 z"
       id="path841"
       sodipodi:nodetypes="ccssscsc" />
    <path
       style="fill:none;stroke:#000000;stroke-width:0.03;stroke-linecap:butt;stroke-linejoin:miter;stroke-miterlimit:4;stroke-dasharray:none;stroke-opacity:1"
       d="m 3.6028796,2.3080098 c 0.1311851,-0.033969 0.2268245,-0.084267 0.308647,-0.1648902 0,0 -0.086864,-0.2936108 -0.203992,-0.3737923 C 3.5884925,1.6878363 3.4117987,1.6586774 3.2783602,1.7135043 3.2067012,1.7429473 3.1574588,1.8225539 3.1355413,1.8968606 c -0.022266,0.075489 0.020774,0.2351985 0.020774,0.2351985 0,0 0.1759633,0.021482 0.2569924,0.05473 0.069391,0.028473 0.1895715,0.1212207 0.1895719,0.1212207 z"
       id="path841-3"
       sodipodi:nodetypes="ccssscsc" />
    <ellipse
       style="opacity:1;fill:none;stroke:#000000;stroke-width:0.03;stroke-miterlimit:4;stroke-dasharray:none;stroke-opacity:1"
       id="path863"
       cx="2.4447968"
       cy="2.0060956"
       rx="0.1491238"
       ry="0.28119251" />
    <ellipse
       style="fill:none;stroke:#000000;stroke-width:0.03;stroke-miterlimit:4;stroke-dasharray:none;stroke-opacity:1"
       id="path863-6"
       cx="3.494797"
       cy="1.981341"
       rx="0.1491238"
       ry="0.28119251" />
    <path
       style="fill:none;stroke:#000000;stroke-width:0.03;stroke-linecap:butt;stroke-linejoin:miter;stroke-miterlimit:4;stroke-dasharray:none;stroke-opacity:1"
       d="M 2.8066889,2.4465504 C 2.9219011,2.4238913 3.0341116,2.4024066 3.1559468,2.4450804 3.1185849,2.5457959 3.0746,2.6313567 2.9752493,2.6982394 2.8871709,2.6277522 2.8400051,2.5578523 2.8066889,2.4465504 Z"
       id="path887"
       sodipodi:nodetypes="cccc" />
    <path
       style="fill:none;stroke:#000000;stroke-width:0.03;stroke-linecap:butt;stroke-linejoin:miter;stroke-opacity:1;stroke-miterlimit:4;stroke-dasharray:none"
       d="M 2.5469722,2.231743 2.8066889,2.4465504"
       id="path889" />
    <path
       style="fill:none;stroke:#000000;stroke-width:0.03;stroke-linecap:butt;stroke-linejoin:miter;stroke-miterlimit:4;stroke-dasharray:none;stroke-opacity:1"
       d="M 3.3968384,2.1912201 3.1559468,2.4450804"
       id="path889-7"
       sodipodi:nodetypes="cc" />
    <path
       style="fill:none;stroke:#000000;stroke-width:0.03;stroke-linecap:butt;stroke-linejoin:miter;stroke-opacity:1;stroke-miterlimit:4;stroke-dasharray:none"
       d="m 2.9752493,2.6982393 0.00124,0.096492"
       id="path911" />
    <path
       style="fill:none;stroke:#000000;stroke-width:0.03;stroke-linecap:butt;stroke-linejoin:miter;stroke-opacity:1;stroke-miterlimit:4;stroke-dasharray:none"
       d="M 2.7667061,2.9604536 2.9764894,2.7947313 3.1673167,2.9595238"
       id="path913" />
    <path
       style="fill:none;stroke:#000000;stroke-width:0.03;stroke-linecap:butt;stroke-linejoin:miter;stroke-miterlimit:4;stroke-dasharray:none;stroke-opacity:1"
       d="m 2.1577642,1.6096529 c 0,0 0.2235015,-0.013532 0.3318358,0.009 0.1148194,0.02388 0.3263382,0.1314815 0.3263382,0.1314815"
       id="path915"
       sodipodi:nodetypes="csc" />
    <path
       style="fill:none;stroke:#000000;stroke-width:0.03;stroke-linecap:butt;stroke-linejoin:miter;stroke-miterlimit:4;stroke-dasharray:none;stroke-opacity:1"
       d="m 3.7532767,1.6119986 c 0,0 -0.2235015,-0.013532 -0.3318358,0.009 -0.1148194,0.02388 -0.3263382,0.1314815 -0.3263382,0.1314815"
       id="path915-5"
       sodipodi:nodetypes="csc" />
    <path
       style="fill:none;stroke:#000000;stroke-width:0.03;stroke-linecap:butt;stroke-linejoin:miter;stroke-miterlimit:4;stroke-dasharray:none;stroke-opacity:1"
       d="m 1.7907417,1.7562237 c 0,0 0.2091345,-0.1826231 0.3313464,-0.2455897 0.1365606,-0.070359 0.4383748,-0.142199 0.4383748,-0.142199 0,0 -0.2094378,-0.2616967 -0.3465825,-0.3534503 -0.1135135,-0.0759437 -0.379877,-0.15352008 -0.379877,-0.15352008 0,0 -0.08987,0.26030698 -0.098954,0.39609198 -0.011164,0.1668828 0.055692,0.4986671 0.055692,0.4986671 z"
       id="path937"
       sodipodi:nodetypes="cscscsc" />
    <path
       style="fill:none;stroke:#000000;stroke-width:0.03;stroke-linecap:butt;stroke-linejoin:miter;stroke-miterlimit:4;stroke-dasharray:none;stroke-opacity:1"
       d="m 1.8340034,0.86146464 c 0,0 0.2036933,0.14019756 0.2884109,0.22904856 0.092773,0.097299 0.2355084,0.3274149 0.2355084,0.3274149"
       id="path941"
       sodipodi:nodetypes="csc" />
    <path
       style="fill:none;stroke:#000000;stroke-width:0.03;stroke-linecap:butt;stroke-linejoin:miter;stroke-miterlimit:4;stroke-dasharray:none;stroke-opacity:1"
       d="m 4.118745,1.738712 c 0,0 -0.2091345,-0.1826231 -0.3313464,-0.2455897 -0.1365606,-0.070359 -0.4383748,-0.142199 -0.4383748,-0.142199 0,0 0.2094378,-0.2616966 0.3465825,-0.35345025 0.1135135,-0.0759437 0.379877,-0.15352008 0.379877,-0.15352008 0,0 0.08987,0.26030703 0.098954,0.39609193 0.011164,0.1668828 -0.055692,0.4986671 -0.055692,0.4986671 z"
       id="path937-3"
       sodipodi:nodetypes="cscscsc" />
    <path
       style="fill:none;stroke:#000000;stroke-width:0.03;stroke-linecap:butt;stroke-linejoin:miter;stroke-miterlimit:4;stroke-dasharray:none;stroke-opacity:1"
       d="m 4.0754833,0.84395299 c 0,0 -0.2036933,0.14019756 -0.2884109,0.22904861 C 3.6942994,1.1703006 3.551564,1.4004164 3.551564,1.4004164"
       id="path941-5"
       sodipodi:nodetypes="csc" />
  </g>
</svg>
