<?xml version="1.0" encoding="UTF-8" standalone="no"?>
<svg
   xmlns:dc="http://purl.org/dc/elements/1.1/"
   xmlns:cc="http://creativecommons.org/ns#"
   xmlns:rdf="http://www.w3.org/1999/02/22-rdf-syntax-ns#"
   xmlns:svg="http://www.w3.org/2000/svg"
   xmlns="http://www.w3.org/2000/svg"
   xmlns:sodipodi="http://sodipodi.sourceforge.net/DTD/sodipodi-0.dtd"
   xmlns:inkscape="http://www.inkscape.org/namespaces/inkscape"
   width="0.60000002cm"
   height="0.40000001cm"
   viewBox="0 0 6 4"
   version="1.1"
   id="svg8"
   inkscape:version="1.0.2 (e86c870879, 2021-01-15)"
   sodipodi:docname="face_left.svg">
  <defs
     id="defs2" />
  <sodipodi:namedview
     id="base"
     pagecolor="#ffffff"
     bordercolor="#666666"
     borderopacity="1.0"
     inkscape:pageopacity="0.0"
     inkscape:pageshadow="2"
     inkscape:zoom="44.8"
     inkscape:cx="11.208632"
     inkscape:cy="7.6321806"
     inkscape:document-units="cm"
     inkscape:current-layer="layer1"
     inkscape:document-rotation="0"
     showgrid="false"
     showguides="false"
     units="cm"
     inkscape:window-width="1536"
     inkscape:window-height="784"
     inkscape:window-x="0"
     inkscape:window-y="0"
     inkscape:window-maximized="1" />
  <metadata
     id="metadata5">
    <rdf:RDF>
      <cc:Work
         rdf:about="">
        <dc:format>image/svg+xml</dc:format>
        <dc:type
           rdf:resource="http://purl.org/dc/dcmitype/StillImage" />
        <dc:title></dc:title>
      </cc:Work>
    </rdf:RDF>
  </metadata>
  <g
     inkscape:label="Layer 1"
     inkscape:groupmode="layer"
     id="layer1">
    <path
       id="path10"
       style="opacity:1;fill:none;fill-rule:evenodd;stroke:#000000;stroke-width:0.03;stroke-miterlimit:4;stroke-dasharray:none;stroke-opacity:1"
       d="m 4.2164443,2.0935569 c 0,0.6036612 -0.5813356,1.1121168 -1.2348004,1.1121168 -0.6534648,10e-8 -1.2567896,-0.5002991 -1.2567896,-1.1039604 0,-0.6036612 0.6079387,-1.0658491 1.2614035,-1.065849 0.6534648,0 1.2301865,0.4540314 1.2301865,1.0576926 z"
       sodipodi:nodetypes="sssss" />
    <path
       id="path836"
       style="opacity:1;fill:none;stroke:#000000;stroke-width:0.0358846;stroke-miterlimit:4;stroke-dasharray:none;stroke-opacity:1"
       d="m 3.6178763,2.6190481 c 0,0.349838 -0.312405,0.5862371 -0.7563816,0.5862371 -0.4439766,0 -0.769542,-0.2294172 -0.7695419,-0.5792552 0,-0.349838 0.3298333,-0.5086445 0.7738098,-0.5086445 0.4439765,0 0.7521136,0.1518246 0.7521137,0.5016626 z"
       sodipodi:nodetypes="sssss" />
    <path
       style="fill:none;stroke:#000000;stroke-width:0.03;stroke-linecap:butt;stroke-linejoin:miter;stroke-miterlimit:4;stroke-dasharray:none;stroke-opacity:1"
       d="m 2.2103047,2.3077173 c -0.1218272,-0.0206 -0.2209852,-0.075211 -0.308647,-0.1648902 0,0 0.086864,-0.2936108 0.203992,-0.3737923 0.1190421,-0.081491 0.2957359,-0.1106499 0.4291744,-0.055823 0.071659,0.029443 0.1209014,0.1090496 0.1428189,0.1833563 0.022266,0.075489 -0.020774,0.2351985 -0.020774,0.2351985 0,0 -0.1759633,0.021482 -0.2569924,0.05473 -0.069391,0.028473 -0.1895715,0.1212207 -0.1895719,0.1212207 z"
       id="path841"
       sodipodi:nodetypes="ccssscsc" />
    <path
       style="fill:none;stroke:#000000;stroke-width:0.03;stroke-linecap:butt;stroke-linejoin:miter;stroke-miterlimit:4;stroke-dasharray:none;stroke-opacity:1"
       d="m 3.4777488,2.2923223 c 0.1311851,-0.033969 0.2268245,-0.084267 0.308647,-0.1648902 0,0 -0.086864,-0.2936108 -0.203992,-0.3737923 C 3.4633617,1.6721488 3.2866679,1.6429899 3.1532294,1.6978168 3.0815704,1.7272598 3.032328,1.8068664 3.0104105,1.8811731 c -0.022266,0.075489 0.020774,0.2351985 0.020774,0.2351985 0,0 0.1759633,0.021482 0.2569924,0.05473 0.069391,0.028473 0.1895715,0.1212207 0.1895719,0.1212207 z"
       id="path841-3"
       sodipodi:nodetypes="ccssscsc" />
    <ellipse
       style="opacity:1;fill:none;stroke:#000000;stroke-width:0.03;stroke-miterlimit:4;stroke-dasharray:none;stroke-opacity:1"
       id="path863"
       cx="2.1953888"
       cy="2.0093715"
       rx="0.1491238"
       ry="0.28119251" />
    <ellipse
       style="fill:none;stroke:#000000;stroke-width:0.03;stroke-miterlimit:4;stroke-dasharray:none;stroke-opacity:1"
       id="path863-6"
       cx="3.2713656"
       cy="1.9507505"
       rx="0.1491238"
       ry="0.28119251" />
    <path
       style="fill:none;stroke:#000000;stroke-width:0.03;stroke-linecap:butt;stroke-linejoin:miter;stroke-miterlimit:4;stroke-dasharray:none;stroke-opacity:1"
       d="M 2.6177239,2.4374609 C 2.7329361,2.4148018 2.8451466,2.3933171 2.9669818,2.4359909 2.9296199,2.5367064 2.885635,2.6222672 2.7862843,2.6891499 2.6982059,2.6186627 2.6510401,2.5487628 2.6177239,2.4374609 Z"
       id="path887"
       sodipodi:nodetypes="cccc" />
    <path
       style="fill:none;stroke:#000000;stroke-width:0.03;stroke-linecap:butt;stroke-linejoin:miter;stroke-miterlimit:4;stroke-dasharray:none;stroke-opacity:1"
       d="M 2.3928888,2.1970921 2.6177239,2.4374609"
       id="path889"
       sodipodi:nodetypes="cc" />
    <path
       style="fill:none;stroke:#000000;stroke-width:0.03;stroke-linecap:butt;stroke-linejoin:miter;stroke-miterlimit:4;stroke-dasharray:none;stroke-opacity:1"
       d="M 3.2717076,2.1755326 2.9669818,2.4359909"
       id="path889-7"
       sodipodi:nodetypes="cc" />
    <path
       style="fill:none;stroke:#000000;stroke-width:0.03;stroke-linecap:butt;stroke-linejoin:miter;stroke-miterlimit:4;stroke-dasharray:none;stroke-opacity:1"
       d="m 2.7862843,2.6891498 0.00124,0.096492"
       id="path911" />
    <path
       style="fill:none;stroke:#000000;stroke-width:0.03;stroke-linecap:butt;stroke-linejoin:miter;stroke-miterlimit:4;stroke-dasharray:none;stroke-opacity:1"
       d="M 2.5777411,2.9513641 2.7875244,2.7856418 2.9783517,2.9504343"
       id="path913" />
    <path
       style="fill:none;stroke:#000000;stroke-width:0.03;stroke-linecap:butt;stroke-linejoin:miter;stroke-miterlimit:4;stroke-dasharray:none;stroke-opacity:1"
       d="m 2.0326334,1.5939654 c 0,0 0.2235015,-0.013532 0.3318358,0.009 0.1148194,0.02388 0.3263382,0.1314815 0.3263382,0.1314815"
       id="path915"
       sodipodi:nodetypes="csc" />
    <path
       style="fill:none;stroke:#000000;stroke-width:0.03;stroke-linecap:butt;stroke-linejoin:miter;stroke-miterlimit:4;stroke-dasharray:none;stroke-opacity:1"
       d="m 3.6281459,1.5963111 c 0,0 -0.2235015,-0.013532 -0.3318358,0.009 -0.1148194,0.02388 -0.3263382,0.1314815 -0.3263382,0.1314815"
       id="path915-5"
       sodipodi:nodetypes="csc" />
    <path
       style="fill:none;stroke:#000000;stroke-width:0.03;stroke-linecap:butt;stroke-linejoin:miter;stroke-miterlimit:4;stroke-dasharray:none;stroke-opacity:1"
       d="m 1.7907417,1.7562237 c 0,0 0.1844498,-0.2238489 0.3066617,-0.2868155 0.1365606,-0.070359 0.3770782,-0.1850858 0.3770782,-0.1850858 0,0 -0.1234565,-0.1775841 -0.2606012,-0.2693377 C 2.1003669,0.939041 1.8340034,0.86146462 1.8340034,0.86146462 c 0,0 -0.08987,0.26030698 -0.098954,0.39609198 -0.011164,0.1668828 0.055692,0.4986671 0.055692,0.4986671 z"
       id="path937"
       sodipodi:nodetypes="cscscsc" />
    <path
       style="fill:none;stroke:#000000;stroke-width:0.03;stroke-linecap:butt;stroke-linejoin:miter;stroke-miterlimit:4;stroke-dasharray:none;stroke-opacity:1"
       d="m 1.8340034,0.86146464 c 0,0 0.122448,0.15112226 0.1922097,0.25214146 0.080846,0.1170699 0.161454,0.314219 0.161454,0.314219"
       id="path941"
       sodipodi:nodetypes="csc" />
    <path
       style="fill:none;stroke:#000000;stroke-width:0.03;stroke-linecap:butt;stroke-linejoin:miter;stroke-miterlimit:4;stroke-dasharray:none;stroke-opacity:1"
       d="m 4.118745,1.738712 c 0,0 -0.2091345,-0.1826231 -0.3313464,-0.2455897 C 3.650838,1.4227633 3.2116891,1.3094668 3.2116891,1.3094668 c 0,0 0.2437657,-0.2490774 0.3809104,-0.34083104 0.1135135,-0.0759437 0.4828838,-0.12468279 0.4828838,-0.12468279 0,0 0.08987,0.26030703 0.098954,0.39609193 0.011164,0.1668828 -0.055692,0.4986671 -0.055692,0.4986671 z"
       id="path937-3"
       sodipodi:nodetypes="cscscsc" />
    <path
       style="fill:none;stroke:#000000;stroke-width:0.03;stroke-linecap:butt;stroke-linejoin:miter;stroke-miterlimit:4;stroke-dasharray:none;stroke-opacity:1"
       d="m 4.0754833,0.84395299 c 0,0 -0.3552621,0.0996869 -0.4399797,0.18853801 C 3.5427306,1.12979 3.3342923,1.344449 3.3342923,1.344449"
       id="path941-5"
       sodipodi:nodetypes="csc" />
  </g>
</svg>
